<svg xmlns="http://www.w3.org/2000/svg" viewBox="0 0 100 100">
  <style>
    @media (prefers-color-scheme: dark) {
      svg { fill: white; }
    }
  </style>
  <path d="M 53.051528,7.6375402 V 80.208703 h 8.627859 V 72.37324 c 1.803404,3.109318 4.072234,5.424824 6.808434,6.94839 2.767294,1.492473 6.062999,2.239292 9.887461,2.239292 6.343011,0 11.489517,-2.518455 15.438352,-7.555551 3.979928,-5.037097 5.970758,-11.658937 5.970758,-19.86754 0,-8.208601 -1.99083,-14.832501 -5.970758,-19.869596 -3.948835,-5.037098 -9.095341,-7.555551 -15.438352,-7.555551 -3.824462,0 -7.120167,0.761004 -9.887461,2.284571 -2.7362,1.492472 -5.00503,3.793791 -6.808434,6.90311 V 7.6375402 Z M 25.710764,26.712684 c -3.637902,0 -6.8565,0.77725 -9.654887,2.331908 -2.767296,1.554659 -5.176156,3.902655 -7.2283064,7.043066 V 27.972285 H 0.19971492 V 80.208703 H 8.8275706 V 50.686277 c 0,-5.099284 1.3373674,-9.125562 4.0113824,-12.079415 2.674014,-2.953853 6.326883,-4.431246 10.959769,-4.431246 3.855555,0 6.74742,1.227766 8.675197,3.68413 1.927778,2.45636 2.891733,6.155906 2.891733,11.099724 v 31.249233 h 8.580521 V 48.679558 c 0,-7.213619 -1.538255,-12.670613 -4.616481,-16.370705 -3.078226,-3.731182 -7.617942,-5.596169 -13.618928,-5.596169 z m 50.56724,7.183022 c 4.539607,0 8.099122,1.802067 10.679857,5.408876 2.611828,3.575716 3.918762,8.521333 3.918762,14.833249 0,6.311917 -1.306934,11.269661 -3.918762,14.876472 -2.580735,3.575717 -6.14025,5.363598 -10.679857,5.363598 -4.539606,-10e-7 -8.115367,-1.787881 -10.727195,-5.363598 -2.580735,-3.606811 -3.871422,-8.564555 -3.871422,-14.876472 0,-6.311916 1.290687,-11.257533 3.871422,-14.833249 2.611828,-3.606809 6.187589,-5.408876 10.727195,-5.408876 z" />
</svg>
